# xmcd
#
# Track frame offsets: 
#        150
#        14631
#        31586
#        44898
#        67751
#        82807
#        99401
#        110892
#        124632
#        140076
#        154062
#        168791
#        182254
#        197000
#        211716
#        226103
#        243137
#
# Disc length: 3429 seconds
#
# Revision: 0
# Processed by: cddbd v1.5.2PL0 Copyright (c) Steve Scherf et al.
# Submitted via: ExactAudioCopy v1.1
#
DISCID=d00d6311
DTITLE=Various Artist - De Ultieme Feesten Als De Beesten Top 100 2019 - CD 3
DYEAR=2019
DGENRE=Pop-Folk
TTITLE0=Dikdakkers - Cowboys and Indianen
TTITLE1=Lawineboys and DJ Jerome - Sex Met Die Kale
TTITLE2=De Alpenzusjes - Hutje Op De Hei (Goldfinger Remix)
TTITLE3=DJ F.R.A.N.K. - From The Left To The Right
TTITLE4=King Africa - Bomba
TTITLE5=Mia Julia - M.I.A. Meine Gang
TTITLE6=Pikotaro - PPAP (Pen Pineapple Apple Pen)
TTITLE7=Yves Segers - Geweldig Figuur
TTITLE8=Gusttavo Lima - Balada
TTITLE9=Balthasar Boma - Santé Santé
TTITLE10=De Sjonnies - Dans Je De Hele Nacht Met Mij
TTITLE11=De Romeo's - Viva De Romeo's
TTITLE12=Swoop - De Polonaisemedley
TTITLE13=The Dinky Toys - My Day Will Come
TTITLE14=Die Freddies - Bier, Schnaps Und Frauen
TTITLE15=De Stoempers - Vrienden
TTITLE16=Jettie Pallettie - Feest In De Tent
EXTD=
EXTT0=
EXTT1=
EXTT2=
EXTT3=
EXTT4=
EXTT5=
EXTT6=
EXTT7=
EXTT8=
EXTT9=
EXTT10=
EXTT11=
EXTT12=
EXTT13=
EXTT14=
EXTT15=
EXTT16=
PLAYORDER=
